<svg width="48.000000" height="48.000000" viewBox="0 0 48 48" fill="none" xmlns="http://www.w3.org/2000/svg" xmlns:xlink="http://www.w3.org/1999/xlink">
	<desc>
			Created with Pixso.
	</desc>
	<defs>
		<clipPath id="clip0_61">
			<rect id="dollar-symbol 1" width="48.000000" height="48.000000" fill="white" fill-opacity="0"/>
		</clipPath>
	</defs>
	<rect id="dollar-symbol 1" width="48.000000" height="48.000000" fill="#FFFFFF" fill-opacity="0"/>
	<g clip-path="url(#clip0_61)">
		<path id="Vector" d="M24 47.99C37.23 47.99 48 37.23 48 23.99C48 20.82 47.37 17.68 46.15 14.75C46.02 14.43 45.73 14.21 45.39 14.17C45.05 14.12 44.72 14.26 44.51 14.53C44.31 14.81 44.26 15.17 44.4 15.48C45.52 18.18 46.1 21.07 46.1 23.99C46.1 36.18 36.18 46.1 24 46.1C11.81 46.1 1.89 36.18 1.89 23.99C1.89 11.81 11.81 1.89 24 1.89C26.47 1.89 28.93 2.3 31.27 3.12C31.59 3.23 31.95 3.17 32.21 2.94C32.46 2.72 32.58 2.38 32.52 2.05C32.46 1.71 32.22 1.44 31.9 1.33C29.36 0.44 26.68 -0.01 24 -0.01C10.76 -0.01 0 10.76 0 23.99C0 37.23 10.76 47.99 24 47.99Z" fill="#156963" fill-opacity="1.000000" fill-rule="nonzero"/>
		<path id="Vector" d="M33.4 6.17C33.03 5.8 32.43 5.8 32.06 6.17C31.69 6.54 31.69 7.14 32.06 7.51L36.48 11.93C36.84 12.29 37.43 12.3 37.81 11.94L45.59 4.51C45.84 4.27 45.95 3.92 45.87 3.59C45.79 3.26 45.53 3 45.21 2.9C44.88 2.81 44.53 2.89 44.28 3.13L37.16 9.93L33.4 6.17Z" fill="#156963" fill-opacity="1.000000" fill-rule="nonzero"/>
		<path id="Vector" d="M24 14.81C26.24 14.82 28.05 16.63 28.05 18.87C28.05 19.4 28.48 19.82 29 19.82C29.53 19.82 29.95 19.4 29.95 18.87C29.95 15.95 27.83 13.46 24.94 12.99L24.94 11.11C24.94 10.59 24.52 10.16 24 10.16C23.47 10.16 23.05 10.59 23.05 11.11L23.05 12.99C19.98 13.49 17.81 16.25 18.06 19.35C18.31 22.44 20.89 24.83 24 24.83C26.23 24.83 28.04 26.63 28.05 28.86C28.07 31.1 26.27 32.92 24.04 32.95C24.03 32.95 24.01 32.94 24 32.94C23.98 32.94 23.96 32.95 23.95 32.95C21.73 32.92 19.94 31.11 19.94 28.89C19.94 28.36 19.51 27.94 18.99 27.94C18.46 27.94 18.04 28.36 18.04 28.89C18.04 31.81 20.16 34.3 23.05 34.77L23.05 36.88C23.05 37.4 23.47 37.83 24 37.83C24.52 37.83 24.94 37.4 24.94 36.88L24.94 34.77C28.01 34.27 30.18 31.51 29.93 28.41C29.68 25.32 27.1 22.93 24 22.93C22.54 22.94 21.19 22.17 20.46 20.91C19.73 19.65 19.73 18.1 20.46 16.84C21.19 15.58 22.54 14.81 24 14.81L24 14.81Z" fill="#156963" fill-opacity="1.000000" fill-rule="nonzero"/>
	</g>
</svg>
