<svg width="32.000000" height="32.000000" viewBox="0 0 32 32" fill="none" xmlns="http://www.w3.org/2000/svg" xmlns:xlink="http://www.w3.org/1999/xlink">
	<desc>
			Created with Pixso.
	</desc>
	<defs/>
	<g opacity="0.000000">
		<path id="Vector" d="M31.99 0L31.99 32L-0.01 32L-0.01 0L31.99 0Z" fill="#333333" fill-opacity="1.000000" fill-rule="evenodd"/>
	</g>
	<path id="Vector" d="M25.33 14.66L9.51 14.66L14.35 8.85C14.58 8.58 14.69 8.22 14.66 7.87C14.63 7.52 14.45 7.19 14.18 6.97C13.91 6.74 13.56 6.63 13.21 6.67C12.85 6.7 12.53 6.87 12.3 7.14L5.63 15.14C5.59 15.21 5.55 15.27 5.51 15.34C5.51 15.41 5.51 15.45 5.42 15.52C5.36 15.67 5.33 15.83 5.33 16C5.33 16.16 5.36 16.32 5.42 16.48C5.42 16.54 5.42 16.58 5.51 16.65C5.55 16.72 5.59 16.78 5.63 16.85L12.3 24.85C12.43 25 12.58 25.12 12.76 25.2C12.94 25.29 13.13 25.33 13.33 25.33C13.64 25.33 13.94 25.22 14.18 25.02C14.32 24.91 14.43 24.77 14.51 24.62C14.59 24.46 14.64 24.29 14.66 24.12C14.67 23.94 14.66 23.77 14.6 23.6C14.55 23.43 14.47 23.28 14.35 23.14L9.51 17.33L25.33 17.33C25.68 17.33 26.02 17.19 26.27 16.94C26.52 16.69 26.66 16.35 26.66 16C26.66 15.64 26.52 15.3 26.27 15.05C26.02 14.8 25.68 14.66 25.33 14.66Z" fill="#333333" fill-opacity="1.000000" fill-rule="nonzero"/>
</svg>
