<svg width="32.000000" height="32.000000" viewBox="0 0 32 32" fill="none" xmlns="http://www.w3.org/2000/svg" xmlns:xlink="http://www.w3.org/1999/xlink">
	<desc>
			Created with Pixso.
	</desc>
	<defs>
		<clipPath id="clip0_77">
			<rect id="arrow-back-outline (1) 1" width="32.000000" height="32.000000" transform="translate(31.999878 32.000000) rotate(180.000000)" fill="white" fill-opacity="0"/>
		</clipPath>
	</defs>
	<rect id="arrow-back-outline (1) 1" width="32.000000" height="32.000000" transform="translate(31.999878 32.000000) rotate(180.000000)" fill="#FFFFFF" fill-opacity="0"/>
	<g clip-path="url(#clip0_77)">
		<g opacity="0.000000">
			<path id="Vector" d="M-0.01 32L-0.01 0L31.99 0L31.99 32L-0.01 32Z" fill="#F2F2F2" fill-opacity="1.000000" fill-rule="evenodd"/>
		</g>
		<path id="Vector" d="M6.66 17.33L22.47 17.33L17.64 23.14C17.41 23.41 17.3 23.77 17.33 24.12C17.36 24.47 17.54 24.8 17.81 25.02C18.08 25.25 18.43 25.36 18.78 25.32C19.14 25.29 19.46 25.12 19.69 24.85L26.36 16.85C26.4 16.78 26.44 16.72 26.47 16.65C26.47 16.58 26.47 16.54 26.57 16.48C26.63 16.32 26.66 16.16 26.66 16C26.66 15.83 26.63 15.67 26.57 15.52C26.57 15.45 26.57 15.41 26.47 15.34C26.44 15.27 26.4 15.21 26.36 15.14L19.69 7.14C19.56 6.99 19.41 6.87 19.23 6.79C19.05 6.7 18.86 6.66 18.66 6.66C18.35 6.66 18.05 6.77 17.81 6.97C17.67 7.08 17.56 7.22 17.48 7.37C17.4 7.53 17.35 7.7 17.33 7.87C17.32 8.05 17.33 8.22 17.39 8.39C17.44 8.56 17.52 8.71 17.64 8.85L22.47 14.66L6.66 14.66C6.31 14.66 5.97 14.8 5.72 15.05C5.47 15.3 5.33 15.64 5.33 16C5.33 16.35 5.47 16.69 5.72 16.94C5.97 17.19 6.31 17.33 6.66 17.33Z" fill="#F2F2F2" fill-opacity="1.000000" fill-rule="nonzero"/>
	</g>
</svg>
