<svg width="20.000000" height="20.000000" viewBox="0 0 20 20" fill="none" xmlns="http://www.w3.org/2000/svg" xmlns:xlink="http://www.w3.org/1999/xlink">
	<desc>
			Created with Pixso.
	</desc>
	<defs>
		<clipPath id="clip0_102">
			<rect id="shopping-cart 1" width="20.000000" height="20.000000" fill="white" fill-opacity="0"/>
		</clipPath>
	</defs>
	<rect id="shopping-cart 1" width="20.000000" height="20.000000" fill="#FFFFFF" fill-opacity="0"/>
	<g clip-path="url(#clip0_102)">
		<path id="Vector" d="M7.5 18.33C7.03 18.33 6.66 17.96 6.66 17.5C6.66 17.03 7.03 16.66 7.5 16.66C7.96 16.66 8.33 17.03 8.33 17.5C8.33 17.96 7.96 18.33 7.5 18.33Z" stroke="#000000" stroke-opacity="1.000000" stroke-width="2.000000" stroke-linejoin="round"/>
		<path id="Vector" d="M16.66 18.33C16.2 18.33 15.83 17.96 15.83 17.5C15.83 17.03 16.2 16.66 16.66 16.66C17.12 16.66 17.5 17.03 17.5 17.5C17.5 17.96 17.12 18.33 16.66 18.33Z" stroke="#000000" stroke-opacity="1.000000" stroke-width="2.000000" stroke-linejoin="round"/>
		<path id="Vector" d="M0.83 0.83L4.16 0.83L6.39 11.99C6.47 12.37 6.68 12.72 6.98 12.96C7.29 13.21 7.67 13.34 8.06 13.33L16.16 13.33C16.55 13.34 16.93 13.21 17.24 12.96C17.54 12.72 17.75 12.37 17.83 11.99L19.16 5L4.99 5" stroke="#000000" stroke-opacity="1.000000" stroke-width="2.000000" stroke-linejoin="round" stroke-linecap="round"/>
	</g>
</svg>
