<svg width="48.000000" height="48.000000" viewBox="0 0 48 48" fill="none" xmlns="http://www.w3.org/2000/svg" xmlns:xlink="http://www.w3.org/1999/xlink">
	<desc>
			Created with Pixso.
	</desc>
	<defs>
		<clipPath id="clip0_20">
			<rect id="fast 1" width="48.000000" height="48.000000" fill="white" fill-opacity="0"/>
		</clipPath>
	</defs>
	<rect id="fast 1" width="48.000000" height="48.000000" fill="#FFFFFF" fill-opacity="0"/>
	<g clip-path="url(#clip0_20)">
		<path id="Vector" d="M13 38L9 38C8.44 38 8 37.55 8 37C8 36.44 8.44 36 9 36L13 36C13.55 36 14 36.44 14 37C14 37.55 13.55 38 13 38Z" fill="#156963" fill-opacity="1.000000" fill-rule="nonzero"/>
		<path id="Vector" d="M45.5 38L43 38C42.44 38 42 37.55 42 37C42 36.44 42.44 36 43 36L44.67 36L46.01 28.81C46 25.14 42.86 22 39 22L32.43 22L29.25 36L35 36C35.55 36 36 36.44 36 37C36 37.55 35.55 38 35 38L28 38C27.69 38 27.4 37.86 27.21 37.62C27.02 37.38 26.95 37.07 27.02 36.78L30.66 20.78C30.76 20.32 31.16 20 31.63 20L39 20C43.96 20 48 24.03 48 29L46.48 37.18C46.39 37.65 45.98 38 45.5 38Z" fill="#156963" fill-opacity="1.000000" fill-rule="nonzero"/>
		<path id="Vector" d="M38.99 42C36.24 42 33.99 39.75 33.99 37C33.99 34.24 36.24 32 38.99 32C41.75 32 43.99 34.24 43.99 37C43.99 39.75 41.75 42 38.99 42ZM38.99 34C37.34 34 35.99 35.34 35.99 37C35.99 38.65 37.34 40 38.99 40C40.65 40 41.99 38.65 41.99 37C41.99 35.34 40.65 34 38.99 34Z" fill="#156963" fill-opacity="1.000000" fill-rule="nonzero"/>
		<path id="Vector" d="M17 42C14.24 42 12 39.75 12 37C12 34.24 14.24 32 17 32C19.75 32 22 34.24 22 37C22 39.75 19.75 42 17 42ZM17 34C15.34 34 14 35.34 14 37C14 38.65 15.34 40 17 40C18.65 40 20 38.65 20 37C20 35.34 18.65 34 17 34Z" fill="#156963" fill-opacity="1.000000" fill-rule="nonzero"/>
		<path id="Vector" d="M12.99 20L4.99 20C4.44 20 3.99 19.55 3.99 19C3.99 18.44 4.44 18 4.99 18L12.99 18C13.55 18 13.99 18.44 13.99 19C13.99 19.55 13.55 20 12.99 20Z" fill="#156963" fill-opacity="1.000000" fill-rule="nonzero"/>
		<path id="Vector" d="M13 26L3 26C2.44 26 2 25.55 2 25C2 24.44 2.44 24 3 24L13 24C13.55 24 14 24.44 14 25C14 25.55 13.55 26 13 26Z" fill="#156963" fill-opacity="1.000000" fill-rule="nonzero"/>
		<path id="Vector" d="M13 32L1 32C0.44 32 0 31.55 0 31C0 30.44 0.44 30 1 30L13 30C13.55 30 14 30.44 14 31C14 31.55 13.55 32 13 32Z" fill="#156963" fill-opacity="1.000000" fill-rule="nonzero"/>
		<path id="Vector" d="M28 38L21 38C20.44 38 20 37.55 20 37C20 36.44 20.44 36 21 36L27.2 36L31.74 16L9 16C8.44 16 8 15.55 8 15C8 14.44 8.44 14 9 14L33 14C33.3 14 33.59 14.13 33.78 14.37C33.97 14.61 34.04 14.92 33.97 15.22L28.97 37.22C28.87 37.67 28.46 38 28 38Z" fill="#156963" fill-opacity="1.000000" fill-rule="nonzero"/>
	</g>
</svg>
