<svg width="48.000000" height="48.000000" viewBox="0 0 48 48" fill="none" xmlns="http://www.w3.org/2000/svg" xmlns:xlink="http://www.w3.org/1999/xlink">
	<desc>
			Created with Pixso.
	</desc>
	<defs>
		<clipPath id="clip0_35">
			<rect id="headphones 1" width="48.000000" height="48.000000" fill="white" fill-opacity="0"/>
		</clipPath>
	</defs>
	<rect id="headphones 1" width="48.000000" height="48.000000" fill="#FFFFFF" fill-opacity="0"/>
	<g clip-path="url(#clip0_35)">
		<path id="Vector" d="M24 0C12.36 0 2.9 9.46 2.9 21.09C2.9 22.38 2.9 32.35 2.9 32.53C2.9 34.85 4.79 36.75 7.12 36.75L8.77 36.75C9.35 38.38 10.91 39.56 12.75 39.56C15.07 39.56 16.96 37.66 16.96 35.34L16.96 23.9C16.96 21.58 15.07 19.68 12.75 19.68C10.91 19.68 9.35 20.86 8.77 22.5L7.12 22.5C6.63 22.5 6.15 22.58 5.71 22.74L5.71 21.09C5.71 11.01 13.91 2.81 24 2.81C34.08 2.81 42.28 11.01 42.28 21.09L42.28 22.74C41.84 22.58 41.36 22.5 40.87 22.5L39.22 22.5C38.64 20.86 37.08 19.68 35.25 19.68C32.92 19.68 31.03 21.58 31.03 23.9L31.03 35.34C31.03 37.66 32.92 39.56 35.25 39.56C35.67 39.56 36.08 39.49 36.47 39.38C35.94 41.11 34.33 42.37 32.43 42.37L27.97 42.37C27.39 40.73 25.83 39.56 24 39.56C21.67 39.56 19.78 41.45 19.78 43.78C19.78 46.1 21.67 48 24 48C25.83 48 27.39 46.82 27.97 45.18L32.43 45.18C36.31 45.18 39.46 42.03 39.46 38.15L39.46 36.75L40.87 36.75C43.2 36.75 45.09 34.85 45.09 32.53C45.09 32.35 45.09 22.38 45.09 21.09C45.09 9.46 35.63 0 24 0ZM11.34 23.9C11.34 23.13 11.97 22.5 12.75 22.5C13.52 22.5 14.15 23.13 14.15 23.9L14.15 35.34C14.15 36.11 13.52 36.75 12.75 36.75C11.97 36.75 11.34 36.11 11.34 35.34L11.34 23.9ZM7.12 25.31L8.53 25.31L8.53 33.93L7.12 33.93C6.34 33.93 5.71 33.3 5.71 32.53L5.71 26.71C5.71 25.94 6.34 25.31 7.12 25.31ZM24 45.18C23.22 45.18 22.59 44.55 22.59 43.78C22.59 43 23.22 42.37 24 42.37C24.77 42.37 25.4 43 25.4 43.78C25.4 44.55 24.77 45.18 24 45.18ZM36.65 35.34C36.65 36.11 36.02 36.75 35.25 36.75C34.47 36.75 33.84 36.11 33.84 35.34L33.84 23.9C33.84 23.13 34.47 22.5 35.25 22.5C36.02 22.5 36.65 23.13 36.65 23.9L36.65 35.34ZM42.28 32.53C42.28 33.3 41.65 33.93 40.87 33.93L39.46 33.93L39.46 25.31L40.87 25.31C41.65 25.31 42.28 25.94 42.28 26.71L42.28 32.53Z" fill="#156963" fill-opacity="1.000000" fill-rule="nonzero"/>
	</g>
</svg>
