<svg width="36.000000" height="36.000000" viewBox="0 0 36 36" fill="none" xmlns="http://www.w3.org/2000/svg" xmlns:xlink="http://www.w3.org/1999/xlink">
	<desc>
			Created with Pixso.
	</desc>
	<defs/>
	<path id="Polygon 1" d="M15.5 1.44L4.91 7.55C3.36 8.44 2.41 10.1 2.41 11.88L2.41 24.11C2.41 25.89 3.36 27.55 4.91 28.44L15.5 34.55C17.04 35.44 18.95 35.44 20.5 34.55L31.08 28.44C32.63 27.55 33.58 25.89 33.58 24.11L33.58 11.88C33.58 10.1 32.63 8.44 31.08 7.55L20.5 1.44C18.95 0.55 17.04 0.55 15.5 1.44Z" fill="#156963" fill-opacity="1.000000" fill-rule="evenodd"/>
	<path id="P" d="M15.61 21.88Q15.88 22.07 16.29 22.07Q16.73 22.07 17.01 21.86Q17.06 21.82 17.11 21.78Q17.17 21.71 17.23 21.64Q17.41 21.37 17.41 20.98L17.41 18.94L19.29 18.94Q20.62 18.94 21.39 18.28Q21.43 18.25 21.47 18.22Q21.67 18.03 21.82 17.81Q22.26 17.17 22.26 16.24Q22.26 15.26 21.8 14.61Q21.66 14.41 21.48 14.25Q21.45 14.23 21.43 14.21Q20.66 13.53 19.29 13.53L16.22 13.53Q15.77 13.53 15.51 13.76Q15.49 13.78 15.46 13.8Q15.44 13.82 15.42 13.85Q15.2 14.11 15.2 14.55L15.2 20.98Q15.2 21.38 15.39 21.66Q15.44 21.72 15.49 21.78Q15.55 21.83 15.61 21.88ZM19.9 17.03Q19.6 17.28 18.99 17.28L17.41 17.28L17.41 15.2L18.99 15.2Q19.68 15.2 19.97 15.54Q20.19 15.8 20.19 16.25Q20.19 16.72 19.96 16.97Q19.93 17 19.9 17.03Z" fill="#FFFFFF" fill-opacity="1.000000" fill-rule="evenodd"/>
</svg>
