<svg width="48.000000" height="48.000000" viewBox="0 0 48 48" fill="none" xmlns="http://www.w3.org/2000/svg" xmlns:xlink="http://www.w3.org/1999/xlink">
	<desc>
			Created with Pixso.
	</desc>
	<defs>
		<clipPath id="clip0_45">
			<rect id="plant 1" width="48.000000" height="48.000000" fill="white" fill-opacity="0"/>
		</clipPath>
	</defs>
	<rect id="plant 1" width="48.000000" height="48.000000" fill="#FFFFFF" fill-opacity="0"/>
	<g clip-path="url(#clip0_45)">
		<path id="Vector" d="M19.29 6.88C15.1 2.69 6.89 2.2 1.08 2.2C0.48 2.2 0 2.69 0 3.29C0 9.1 0.48 17.3 4.67 21.5C6.44 23.27 9.16 24.06 11.85 24.06C14.77 24.06 17.66 23.12 19.29 21.5C22.42 18.37 22.99 10.57 19.29 6.88ZM17.75 19.96C15.42 22.29 8.94 22.69 6.22 19.96C2.83 16.57 2.24 9.7 2.18 4.39C7.49 4.45 14.37 5.04 17.75 8.42C20.48 11.15 20.08 17.63 17.75 19.96Z" fill="#156963" fill-opacity="1.000000" fill-rule="nonzero"/>
		<path id="Vector" d="M46.91 6.51C41.1 6.51 32.89 6.99 28.7 11.19C25 14.88 25.57 22.68 28.7 25.81C30.33 27.43 33.22 28.37 36.14 28.37C38.83 28.37 41.54 27.58 43.32 25.81C47.51 21.62 48 13.41 48 7.6C48 7 47.51 6.51 46.91 6.51ZM41.77 24.27C39.04 26.99 32.57 26.6 30.24 24.27C27.91 21.94 27.51 15.46 30.24 12.73C33.62 9.34 40.5 8.76 45.81 8.69C45.74 14.01 45.16 20.88 41.77 24.27Z" fill="#156963" fill-opacity="1.000000" fill-rule="nonzero"/>
		<path id="Vector" d="M39.03 15.94C38.78 15.4 38.04 15.21 37.5 15.46C29.14 19.39 25.03 26.24 23.17 33.29C20.86 18.31 14.18 13.74 11.35 11.81C11 11.57 10.72 11.39 10.57 11.24C10.15 10.81 9.46 10.81 9.03 11.24C8.61 11.66 8.61 12.35 9.03 12.78C9.25 12.99 9.62 13.26 10.12 13.61C13.31 15.79 21.79 21.59 21.79 44.7C21.79 45.3 22.28 45.79 22.88 45.79C23.48 45.79 23.97 45.3 23.97 44.7C23.97 35.36 26.48 23.05 38.43 17.44C38.43 17.43 38.6 17.35 38.6 17.35C39.15 17.09 39.29 16.49 39.03 15.94Z" fill="#156963" fill-opacity="1.000000" fill-rule="nonzero"/>
	</g>
</svg>
